<svg version="1.1" id="Layer_1" xmlns="http://www.w3.org/2000/svg"  x="0px" y="0px"
	 viewBox="0 0 160 216.2" style="" xml:space="preserve">
<style type="text/css">
	.st0{fill:#90BF21;}
	.st1{fill:#E22027;}
	.st2{fill:#1E1E1B;}
	.st3{fill:#009246;}
	.st4{fill:#3BA8E0;}
	.st5{fill:#BE2126;}
	.st6{fill:#FCEA1A;}
</style>
	<g class="krakdroid">
		<g class="head">
			<path class="st0" d="M84.8,50.2c-7.7,0-14.9,1.9-21.2,5.2c-2.2-3.9-4.4-7.7-6.7-11.6c-0.3-0.6-0.7-1.1-1.3-0.7
				c-0.6,0.4-0.5,1.1-0.1,1.8c1.6,2.8,3.2,5.5,4.8,8.3c0.6,1,1.2,2.1,1.8,3.1c-13.6,7.9-22.8,22.6-22.8,39.5h91.2
				C130.4,70.6,109.9,50.2,84.8,50.2z M63.4,81.6c-2.8,0-5-2.2-5-5c0-2.9,2.2-5.1,5.1-5.1c2.9,0,5.1,2.2,5.1,5.1
				C68.5,79.4,66.3,81.6,63.4,81.6z M106.6,81.6c-2.8,0-5-2.2-5-5c0-2.9,2.2-5.1,5.1-5.1c2.9,0,5.1,2.2,5.1,5.1
				C111.7,79.4,109.5,81.6,106.6,81.6z"/>
			<path class="st0" d="M63.1,53.8c-1.9-3.4-3.9-6.8-5.9-10.2c-0.2-0.4-0.6-1.1-1.3-1.1c-0.2,0-0.4,0.1-0.6,0.2
				c-0.7,0.4-0.8,1.3-0.3,2.3c1.2,2,2.4,4.1,3.5,6.1l3.2,5.6l2.3-1.3L63.1,53.8z M62.1,55.7l-2.8-4.9c-1.2-2-2.3-4.1-3.5-6.1
				c-0.1-0.2-0.5-0.9,0-1.2c0,0,0.1-0.1,0.2-0.1c0.2,0,0.5,0.5,0.6,0.6c2,3.4,4,6.8,5.9,10.2l0.6,1L62.1,55.7z"/>
			<g class="hat">
				<path class="st3" d="M151.6,0c-1.1,10.7,0.1,14-3.6,19.7c-6.6,10.3-15.6,12.7-20.8,8.2c-5.3-4.6-4-13.9,5.4-21.8
					C137.7,1.7,141.2,2.5,151.6,0z M143.9,8.7c-3.3-2.9-9.3-1.4-13.4,3.3c-4.1,4.7-4.8,10.8-1.5,13.7s9.3,1.4,13.4-3.3
					C146.5,17.7,147.2,11.6,143.9,8.7z"/>
				<path class="st4" d="M140.1,12.9c-2.1-1.9-6-0.9-8.6,2.1s-3.1,7-0.9,8.8c2.1,1.9,6,0.9,8.6-2.1S142.2,14.8,140.1,12.9z
					 M136.3,22.2c-1.2,1.3-3.2,1.5-4.5,0.3c-1.3-1.2-1.5-3.2-0.3-4.5c1.2-1.3,3.2-1.5,4.5-0.3S137.4,20.8,136.3,22.2z"/>
				<polygon class="st1" points="69.4,27.1 73.1,36.5 99.1,44.5 105.9,22.4 			"/>
				<path class="st3" d="M128.4,28.5l-1.1-1L128.4,28.5l-1.1-1l-1.1-1c-0.1,0.1-2.8,3.2-3.9,7.7l2.5,2.3
					C125.4,32,128.2,28.7,128.4,28.5z"/>
				<path class="st2" d="M126.1,55.8c-2-0.6-3.3-2.2-3.7-4.1L73.1,36.5l-2.7,8.8l56.8,17.6l1.2-3.9c-0.6-1-1.2-2-1.6-2.9
					C126.5,55.9,126.3,55.9,126.1,55.8z"/>
				<path class="st4" d="M132.1,53.8c-0.4,0.6-0.9,1.1-1.5,1.4c1,2,2.2,4.1,3.4,6.4c4.9,7.3,8.6,14.4,6.7,25.8l3.7,0.6
					C147.4,69.8,137.8,60.8,132.1,53.8z"/>
				<path class="st5" d="M135.9,65.9c-0.6-1.5-1.3-3-2-4.3c-1.2-2.3-2.3-4.4-3.4-6.4c0,0,0,0,0,0c-1,0.6-2.1,0.9-3.3,0.8
					c-0.2,0-0.4,0-0.6-0.1c0.5,0.9,1,1.9,1.6,2.9c3.9,6.8,9.1,16.7,4.7,31.1l3.6,1.1C140,80.4,138.6,72.4,135.9,65.9z"/>
				<path class="st1" d="M138.2,48.4l-2.6-2.3l-10.8-9.7l-2.5-2.3l-11.6-10.3L103.9,46l18.5,5.7c-0.2-0.9-0.1-1.8,0.1-2.7
					c0.4-1.2,1.1-2.1,2-2.8c0.8-0.6,1.8-1,2.9-1c0.6,0,1.3,0,1.9,0.2c1.6,0.5,2.8,1.7,3.4,3.1c0.1,0.2,0.1,0.4,0.2,0.5
					c0.3,0.9,0.3,1.9,0.1,2.9L138.2,48.4z"/>
				<path class="st6" d="M132.9,49.1c-0.1-0.2-0.1-0.4-0.2-0.5c-0.6-1.4-1.8-2.6-3.4-3.1c-2.9-0.9-5.9,0.7-6.8,3.6
					c-0.3,0.9-0.3,1.8-0.1,2.7v0c0.4,1.9,1.8,3.5,3.7,4.1c0.2,0.1,0.4,0.1,0.6,0.2c0.2,0,0.4,0.1,0.6,0.1c1.2,0.1,2.3-0.2,3.3-0.8
					c0,0,0,0,0,0c0.6-0.4,1.1-0.9,1.5-1.4c0.3-0.5,0.6-1,0.8-1.5c0-0.1,0.1-0.2,0.1-0.3C133.2,51,133.2,50,132.9,49.1z M126.5,54.5
					c-2.1-0.7-3.3-2.9-2.7-5c0.7-2.1,2.9-3.3,5-2.7c2.1,0.7,3.3,2.9,2.7,5C130.9,54,128.6,55.1,126.5,54.5z"/>
			</g>
		</g>

		<g class="right-leg">
			<path class="st1" d="M98.1,180.5v34.8c0.8,0.4,1.7,0.7,2.7,0.9v-35.6H98.1z"/>
			<path class="st1" d="M103.7,180.5v35.6c0.9-0.2,1.8-0.4,2.7-0.9v-34.8H103.7z"/>
			<path class="st1" d="M109.4,213c1.4-1.7,2.3-3.8,2.3-6.2v-26.3h-2.3V213z"/>
			<path class="st1" d="M92.8,180.5v26.3c0,2.3,0.9,4.5,2.3,6.2v-32.5H92.8z"/>
		</g>

		<g class="torso">
			<path class="st2" d="M126.8,108.9c-19.9,0-38.6,10.4-38.6,18.5v53.1h-6.8v-53.1c0-8.1-18.7-18.5-38.6-18.5h-3.5l0,65.3
				c0,3.4,2.8,6.2,6.2,6.2h14.4V213c0.8,1,1.8,1.7,3,2.3v-34.8h2.7v35.6c0.5,0.1,1,0.1,1.5,0.1c0.5,0,1,0,1.5-0.1v-35.6h2.7v34.8
				c1.1-0.6,2.1-1.4,3-2.3v-32.5h17.7h3.3V213c0.8,1,1.8,1.7,3,2.3v-34.8h2.7v35.6c0.5,0.1,1,0.1,1.5,0.1c0.5,0,1,0,1.5-0.1v-35.6
				h2.7v34.8c1.1-0.6,2.1-1.4,3-2.3v-32.5h5.2h9.5c3.4,0,6.2-2.8,6.2-6.2v-65.3H126.8z M51.2,170l6.7-10.3l6.7,10.3H51.2z
				 M51.2,151.9l6.7-10.3l6.7,10.3H51.2z M51.2,132.6l6.7-10.3l6.7,10.3H51.2z M105,170l6.7-10.3l6.7,10.3H105z M105,151.9l6.7-10.3
				l6.7,10.3H105z M105,132.6l6.7-10.3l6.7,10.3H105z"/>
			<polygon class="st0" points="51.2,132.6 64.6,132.6 57.9,122.3 			"/>
			<polygon class="st0" points="51.2,151.9 64.6,151.9 57.9,141.6 			"/>
			<polygon class="st0" points="51.2,170 64.6,170 57.9,159.7 			"/>
			<polygon class="st0" points="105,132.6 118.3,132.6 111.7,122.3 			"/>
			<polygon class="st0" points="105,151.9 118.3,151.9 111.7,141.6 			"/>
			<polygon class="st0" points="105,170 118.3,170 111.7,159.7 			"/>
			<path class="st1" d="M130,106.7c-0.7-2.6-3.1-4.5-6-4.5h-0.6c-15.4,0.8-31.8,7.2-38.7,16.1c-6.9-9-23.3-15.3-38.7-16.1h-0.6
				c-0.5,0-0.9,0.1-1.4,0.2c-0.3,0.1-0.7,0.2-1,0.3c-0.2,0.1-0.4,0.2-0.5,0.3c-1.9,1.1-3.2,3.1-3.2,5.4v0.5h3.5
				c19.9,0,38.6,10.4,38.6,18.5v53.1h6.8v-53.1c0-8.1,18.7-18.5,38.6-18.5h3.5v-0.5C130.3,107.8,130.2,107.3,130,106.7z"/>
			<path class="st0" d="M84.8,118.4c6.9-9,23.3-15.3,38.7-16.1H46.1C61.4,103,77.9,109.4,84.8,118.4z"/>
		</g>

		<g class="left-hand">
			<path class="st0" d="M1.8,77l-1.3-3.9c-1.7-4.9,1-10.3,5.9-12l0,0c4.9-1.7,10.3,1,12,5.9l1.3,3.9L1.8,77z"/>
			<path class="st2" d="M26.7,121.1L26.7,121.1c4.9-1.7,7.6-7.1,5.9-12L21.2,75.3L3.3,81.4l11.5,33.8
				C16.4,120.1,21.8,122.8,26.7,121.1z"/>
		</g>

		<g class="right-hand">
			<path class="st0" d="M136.6,152v4.1c0,5.2,4.2,9.4,9.4,9.4h0c5.2,0,9.4-4.2,9.4-9.4V152H136.6z"/>
			<path class="st2" d="M146.1,102.2L146.1,102.2c-5.2,0-9.4,4.2-9.4,9.4v35.7h18.9v-35.7C155.5,106.5,151.3,102.2,146.1,102.2z"/>
		</g>

		<g class="left-leg">
			<path class="st1" d="M62.9,180.5v34.8c0.8,0.4,1.7,0.7,2.7,0.9v-35.6H62.9z"/>
			<path class="st1" d="M68.5,180.5v35.6c0.9-0.2,1.8-0.4,2.7-0.9v-34.8H68.5z"/>
			<path class="st1" d="M74.2,213c1.4-1.7,2.3-3.8,2.3-6.2v-26.3h-2.3V213z"/>
			<path class="st1" d="M57.6,180.5v26.3c0,2.3,0.9,4.5,2.3,6.2v-32.5H57.6z"/>
		</g>
	</g>
</svg>
